#tb 0: 1/25
0,          0,          0,        1,   152064, 0x45a6c9a8
0,          1,          1,        1,   152064, 0xe7ba65fc
0,          2,          2,        1,   152064, 0x88ab8fcc
0,          3,          3,        1,   152064, 0x91478b9d
0,          4,          4,        1,   152064, 0xb7ecc7cf
